# AST/ASF file generated using VICON BodyLanguage
# -----------------------------------------------
:version 1.10
:name VICON
:units
  mass 1.0
  length 0.45
  angle deg
:documentation
   .ast/.asf automatically generated from VICON data using
   VICON BodyBuilder and BodyLanguage model FoxedUp or BRILLIANT.MOD
:root
   order TX TY TZ RX RY RZ
   axis XYZ
   position 0 0 0  
   orientation 0 0 0 
:bonedata
  begin
     id 1 
     name lhipjoint
     direction 0.822369 -0.411937 0.392449 
     length 3.8167 
     axis 0 0 0  XYZ
  end
  begin
     id 2 
     name lfemur
     direction 0.34202 -0.939693 0  
     length 6.16791  
     axis 0 0 20  XYZ
    dof rx ry rz
    limits (-160.0 20.0)
           (-70.0 70.0)
           (-60.0 70.0)
  end
  begin
     id 3 
     name ltibia
     direction 0.34202 -0.939693 0   
     length 7.07101   
     axis 0 0 20   XYZ
    dof rx
    limits (-10.0 170.0)
  end
  begin
     id 4 
     name lfoot
     direction 0.028254 -0.0776273 0.996582   
     length 1.66799   
     axis -90 7.62852e-016 20   XYZ
    dof rx rz
    limits (-45.0 90.0)
           (-70.0 20.0)
  end
  begin
     id 5 
     name ltoes
     direction 1.53483e-011 -4.21688e-011 1   
     length 0.851674   
     axis -90 7.62852e-016 20   XYZ
    dof rx
    limits (-90.0 20.0)
  end
  begin
     id 6 
     name rhipjoint
     direction -0.822466 -0.411836 0.392353   
     length 3.81764  
     axis 0 0 0  XYZ 
  end
  begin
     id 7 
     name rfemur
     direction -0.34202 -0.939693 0   
     length 6.28636   
     axis 0 0 -20   XYZ
    dof rx ry rz
    limits (-160.0 20.0)
           (-70.0 70.0)
           (-70.0 60.0)
  end
  begin
     id 8 
     name rtibia
     direction -0.34202 -0.939693 0   
     length 6.85621   
     axis 0 0 -20   XYZ
    dof rx
    limits (-10.0 170.0)
 end
 begin
     id 9 
     name rfoot
     direction -0.0553036 -0.151945 0.98684   
     length 1.57293  
     axis -90 -7.62852e-016 -20   XYZ
    dof rx rz
    limits (-45.0 90.0)
           (-20.0 70.0)
  end
  begin
     id 10 
     name rtoes
     direction -1.53592e-011 -4.21964e-011 1   
     length 0.802812   
     axis -90 -7.62852e-016 -20   XYZ
    dof rx
    limits (-90.0 20.0)
  end
  begin
     id 11 
     name lowerback
     direction 0.00654913 0.996475 -0.0836396   
     length 1.97212   
     axis 0 0 0   XYZ
    dof rx ry rz
    limits (-20.0 45.0)
           (-30.0 30.0)
           (-30.0 30.0)
  end
  begin
     id 12 
     name upperback
     direction 0.0111875 0.994527 0.103877   
     length 1.89704   
     axis 0 0 0   XYZ
    dof rx ry rz
    limits (-20.0 45.0)
           (-30.0 30.0)
           (-30.0 30.0)
  end
  begin
     id 13 
     name thorax
     direction 0.00473652 0.989004 0.147814   
     length 1.94516   
     axis 0 0 0   XYZ
    dof rx ry rz
    limits (-20.0 45.0)
           (-30.0 30.0)
           (-30.0 30.0)
  end
  begin
     id 14 
     name lowerneck
     direction -0.00925808 0.999011 0.0434791   
     length 1.81771   
     axis 0 0 0   XYZ
    dof rx ry rz
    limits (-20.0 45.0)
           (-30.0 30.0)
           (-30.0 30.0)
  end
  begin
     id 15 
     name upperneck
     direction 0.00451595 0.964412 -0.264365   
     length 1.80434   
     axis 0 0 0   XYZ
    dof rx ry rz
    limits (-20.0 45.0)
           (-30.0 30.0)
           (-30.0 30.0)
  end
  begin
     id 16
     name head
     direction -0.00110849 0.995756 -0.0920241  
     length 1.84006  
     axis 0 0 0   XYZ
    dof rx ry rz
    limits (-20.0 45.0)
           (-30.0 30.0)
           (-30.0 30.0)
  end
  begin
     id 17 
     name lclavicle
     direction 0.921253 0.385213 0.0538957  
     length 3.67415  
     axis 0 0 0   XYZ
    dof ry rz
    limits (-20.0 10.0)
           (0.0 20.0)
  end
  begin
     id 18 
     name lhumerus
     direction 1 -4.48961e-011 6.73441e-028   
     length 4.32712   
     axis 180 -30 -90   XYZ
    dof rx ry rz
    limits (-60.0 90.0)
           (-90.0 90.0)
           (-90.0 90.0)
  end
  begin
     id 19
     name lradius
     direction 1 -4.48985e-011 -9.53507e-028   
     length 3.28587   
     axis 180 -30 -90   XYZ
    dof rx
    limits (-10.0 170.0)
  end
  begin
     id 20
     name lwrist
     direction 1 -4.48951e-011 -4.67472e-027   
     length 1.64293   
     axis 1.65735e-015 90 90   XYZ
    dof ry
    limits (-180.0 0.0)
 end
  begin
     id 21 
     name lhand
     direction 1 -4.48946e-011 -9.34945e-027   
     length 0.433158   
     axis 5.96574e-015 90 90   XYZ
    dof rx rz
    limits (-90.0 90.0)
           (-45.0 45.0)
  end
  begin
     id 22 
     name lfingers
     direction 1 -4.48882e-011 -1.86989e-026   
     length 0.349224   
     axis 1.19315e-014 90 90   XYZ
    dof rx
    limits (0.0 90.0)
  end
  begin
     id 23
     name lthumb
     direction 0.707107 -6.3493e-011 0.707107   
     length 0.501417   
     axis -90 45 2.85299e-015   XYZ
    dof rx rz
    limits (-45.0 45.0)
           (-45.0 45.0)
  end
  begin
     id 24 
     name rclavicle
     direction -0.884378 0.46502 -0.0403866   
     length 3.50218  
     axis 0 0 0   XYZ 
    dof ry rz
    limits (-10.0 20.0)
           (-20.0 0.0)
  end
  begin
     id 25 
     name rhumerus
     direction -1 -4.48964e-011 1.58188e-027  
     length 4.29104   
     axis 180 30 90   XYZ
    dof rx ry rz
    limits (-90.0 60.0)
           (-90.0 90.0)
           (-90.0 90.0)
  end
  begin
     id 26 
     name rradius
     direction -1 -4.48978e-011 -1.9722e-027   
     length 3.2272   
     axis 180 30 90   XYZ
    dof rx
    limits (-10.0 170.0)
  end
  begin
     id 27 
     name rwrist
     direction -1 -4.48969e-011 -4.67472e-027   
     length 1.6136   
     axis 1.65735e-015 -90 -90   XYZ
    dof ry
    limits (-180.0 0.0)
  end
  begin
     id 28
     name rhand
     direction -1 -4.48846e-011 -9.34945e-027   
     length 0.543623   
     axis 5.96574e-015 -90 -90   XYZ
    dof rx rz
    limits (-90.0 90.0)
           (-45.0 45.0)
  end
  begin
     id 29
     name rfingers
     direction -1 -4.49074e-011 -1.86989e-026   
     length 0.438283   
     axis 1.19315e-014 -90 -90   XYZ
    dof rx
    limits (0.0 90.0)
  end
  begin
     id 30
     name rthumb
     direction -0.707107 -6.34834e-011 0.707107   
     length 0.629289   
     axis -90 -45 -2.85299e-015   XYZ
    dof rx rz
    limits (-45.0 45.0)
           (-45.0 45.0)
  end
:hierarchy
  begin
    root lhipjoint rhipjoint lowerback
    lhipjoint lfemur
    lfemur ltibia
    ltibia lfoot
    lfoot ltoes
    rhipjoint rfemur
    rfemur rtibia
    rtibia rfoot
    rfoot rtoes
    lowerback upperback
    upperback thorax
    thorax lowerneck lclavicle rclavicle
    lowerneck upperneck
    upperneck head
    lclavicle lhumerus
    lhumerus lradius
    lradius lwrist
    lwrist lhand lthumb
    lhand lfingers
    rclavicle rhumerus
    rhumerus rradius
    rradius rwrist
    rwrist rhand rthumb
    rhand rfingers
  end

#!OML:ASF H:\GeneralSubjects\Female5\Project 1\Capture day 1\Session 1\Female5.ASF
:FULLY-SPECIFIED
:DEGREES
1
root 34.0924 14.783 2.9468 5.12954 -87.4657 17.4229
lowerback 13.7337 0.100789 4.33222
upperback -7.37376 1.18734 1.68952
thorax -16.1004 0.16138 -0.834416
lowerneck -19.2407 0.549994 -1.00743
upperneck 26.6911 3.65624 -10.2257
head 12.2572 -0.0322874 -3.16268
rclavicle -3.77691e-015 1.66979e-014
rhumerus -48.3535 27.5067 -83.6046
rradius 42.2951
rwrist -6.8717
rhand -31.6321 -14.7868
rfingers 7.12502
rthumb -4.89354 -44.7103
lclavicle -3.77691e-015 1.66979e-014
lhumerus -45.3467 -25.3615 98.2069
lradius 89.6834
lwrist -2.42728
lhand -34.3997 25.292
lfingers 7.12502
lthumb -7.56536 55.1367
rfemur -47.9011 11.2696 24.1267
rtibia 39.6786
rfoot -19.8307 -10.2018
rtoes -13.5194
lfemur -9.4762 -0.460379 -29.8168
ltibia 64.2755
lfoot 18.2729 23.5362
ltoes -64.4504
2
root 33.3916 14.7552 2.88542 81.4832 -85.2317 -58.8315
lowerback 14.6054 0.857248 8.67094
upperback -8.08507 3.4104 3.05706
thorax -17.3688 0.703078 -2.29897
lowerneck -18.4276 0.135331 -2.07727
upperneck 26.412 3.41545 -10.6337
head 11.9751 -0.284572 -3.15496
rclavicle 2.38542e-015 6.52014e-014
rhumerus -45.6719 27.3176 -81.0313
rradius 44.969
rwrist -4.72758
rhand -30.6688 -16.0373
rfingers 7.12502
rthumb -3.96335 -45.9802
lclavicle 2.38542e-015 6.52014e-014
lhumerus -50.3886 -22.7422 98.4619
lradius 85.7094
lwrist -5.63103
lhand -32.0972 27.3263
lfingers 7.12502
lthumb -5.34259 57.239
rfemur -42.986 13.2371 29.8666
rtibia 41.5069
rfoot -25.8393 0.835883
rtoes 19.4523
lfemur -17.5762 3.76632 -24.529
ltibia 75.2355
lfoot 10.1159 21.3923
ltoes -63.2626
3
root 32.6541 14.7979 2.84384 95.1453 -84.8325 -71.759
lowerback 14.7218 1.5994 8.6708
upperback -8.56777 4.50059 3.33258
thorax -17.9759 1.16433 -2.28175
lowerneck -18.7132 -0.12717 -2.36131
upperneck 26.0435 3.27494 -11.1897
head 11.9001 -0.440129 -3.32974
rclavicle -3.00165e-014 2.38542e-014
rhumerus -42.2793 27.0788 -78.3375
rradius 49.3231
rwrist -6.50162
rhand -31.2253 -14.1422
rfingers 7.12502
rthumb -4.50069 -44.0744
lclavicle -3.00165e-014 2.38542e-014
lhumerus -56.1226 -20.1469 97.7396
lradius 84.5758
lwrist -7.50471
lhand -35.8701 28.2018
lfingers 7.12502
lthumb -8.98442 57.9905
rfemur -39.5301 11.062 32.8852
rtibia 37.0738
rfoot -22.0831 -2.63032
rtoes 0.859263
lfemur -25.8887 6.31778 -24.6305
ltibia 84.491
lfoot -0.25859 19.9432
ltoes -61.4078
4
root 31.8948 14.8911 2.79843 99.0013 -85.3178 -75.606
lowerback 15.1191 1.9316 7.73457
upperback -8.65447 4.80342 3.30833
thorax -18.3764 1.39366 -1.89798
lowerneck -18.8253 -0.251863 -2.73644
upperneck 25.2295 3.17917 -11.234
head 11.603 -0.482408 -3.26148
rclavicle -1.0138e-014 -4.77083e-015
rhumerus -38.7077 26.4804 -75.6982
rradius 54.1601
rwrist -8.09836
rhand -31.8788 -15.204
rfingers 7.12502
rthumb -5.13175 -45.1218
lclavicle -1.0138e-014 -4.77083e-015
lhumerus -61.3148 -17.4512 96.2434
lradius 84.9173
lwrist -6.4965
lhand -34.4526 26.644
lfingers 7.12502
lthumb -7.6164 56.4868
rfemur -34.9533 8.79809 33.5048
rtibia 34.2229
rfoot -21.3352 -1.11439
rtoes -0.966378
lfemur -34.0468 5.38477 -26.4534
ltibia 90.2864
lfoot -8.35692 17.1694
ltoes -58.1767
5
root 31.1232 14.9864 2.74571 100.865 -86.0438 -77.4701
lowerback 15.2238 2.40383 5.73804
upperback -8.7455 5.0311 3.39516
thorax -18.7011 1.74394 -0.765269
lowerneck -18.8283 -0.682387 -2.73186
upperneck 24.532 2.56761 -11.4387
head 11.3072 -0.741167 -3.39978
rclavicle -1.76918e-014 2.38542e-014
rhumerus -35.739 25.218 -72.9458
rradius 59.7128
rwrist -9.42069
rhand -32.1671 -17.1883
rfingers 7.12502
rthumb -5.41005 -47.0993
lclavicle -1.76918e-014 2.38542e-014
lhumerus -66.3462 -14.9653 94.9045
lradius 86.4535
lwrist -3.31545
lhand -49.1084 51.0579
lfingers 7.12502
lthumb -21.7331 79.8579
rfemur -30.5949 6.88989 33.2529
rtibia 32.0137
rfoot -21.2125 0.236699
rtoes -5.66557
lfemur -41.8031 3.2951 -28.1044
ltibia 93.7493
lfoot -13.0138 13.832
ltoes -59.0746
6
root 30.3209 15.0896 2.68802 102.438 -86.1688 -79.5441
lowerback 15.4766 2.82233 4.21336
upperback -8.69798 5.30559 3.57148
thorax -18.9513 2.07273 0.1904
lowerneck -18.91 -1.05716 -2.71846
upperneck 24.1697 1.97519 -11.2627
head 11.1467 -0.960367 -3.40768
rclavicle 3.63776e-014 3.65764e-014
rhumerus -33.3378 23.5731 -70.668
rradius 65.2652
rwrist -10.6357
rhand -31.8115 -14.8161
rfingers 7.12502
rthumb -5.06675 -44.7355
lclavicle 3.63776e-014 3.65764e-014
lhumerus -70.9838 -12.6511 93.1073
lradius 87.4168
lwrist -0.836091
lhand -34.2074 36.477
lfingers 7.12502
lthumb -7.37975 66.3283
rfemur -25.1254 5.81994 33.3552
rtibia 29.279
rfoot -20.9055 1.07199
rtoes -12.5254
lfemur -48.302 0.880905 -28.3507
ltibia 93.4734
lfoot -17.3499 12.0887
ltoes -60.4642
